<?xml version="1.0" encoding="UTF-8" standalone="no"?>
<svg
   id="Layer_1"
   data-name="Layer 1"
   viewBox="0 0 99.999998 100"
   version="1.1"
   sodipodi:docname="ac.svg"
   width="100"
   height="100"
   inkscape:version="1.1.2 (0a00cf5339, 2022-02-04)"
   xmlns:inkscape="http://www.inkscape.org/namespaces/inkscape"
   xmlns:sodipodi="http://sodipodi.sourceforge.net/DTD/sodipodi-0.dtd"
   xmlns="http://www.w3.org/2000/svg"
   xmlns:svg="http://www.w3.org/2000/svg"
   xmlns:rdf="http://www.w3.org/1999/02/22-rdf-syntax-ns#"
   xmlns:cc="http://creativecommons.org/ns#"
   xmlns:dc="http://purl.org/dc/elements/1.1/">
  <sodipodi:namedview
     id="namedview101"
     pagecolor="#505050"
     bordercolor="#eeeeee"
     borderopacity="1"
     inkscape:pageshadow="0"
     inkscape:pageopacity="0"
     inkscape:pagecheckerboard="0"
     showgrid="false"
     units="px"
     width="100mm"
     height="100px"
     inkscape:zoom="2.426"
     inkscape:cx="130.04946"
     inkscape:cy="183.22341"
     inkscape:window-width="1270"
     inkscape:window-height="1403"
     inkscape:window-x="1204"
     inkscape:window-y="244"
     inkscape:window-maximized="1"
     inkscape:current-layer="Layer_1" />
  <defs
     id="defs89">
    <style
       id="style87">.cls-1{fill:#fff;}</style>
  </defs>
  <title
     id="title91">Artboard 1</title>
  <g
     id="Armor_Class"
     data-name="Armor Class"
     transform="translate(-200.83092,-199.24333)">
    <path
       class="cls-1"
       d="m 286.21,230.42 v 15 a 24.94,24.94 0 0 1 -1.5,8.58 c -6.71,18.18 -17.92,30.56 -33.3,36.79 l -1.08,0.44 -1.08,-0.44 c -15.38,-6.23 -26.59,-18.6 -33.3,-36.78 a 24.78,24.78 0 0 1 -1.49,-8.59 v -15 l 1.75,-0.74 c 3.77,-1.59 6.4,-5.78 7.81,-12.45 l 0.35,-1.64 26,-8.11 26,8.11 0.35,1.64 c 1.41,6.67 4,10.86 7.81,12.45 z"
       id="path93" />
    <path
       d="m 286,229.54 -1.3,-0.55 c -3.53,-1.49 -6,-5.5 -7.36,-11.91 l -0.26,-1.22 -0.18,-0.86 -0.84,-0.26 -25.32,-7.91 -0.45,-0.14 -0.45,0.14 -25.32,7.91 -0.84,0.26 -0.18,0.86 -0.26,1.22 c -1.35,6.41 -3.83,10.42 -7.36,11.91 l -1.3,0.55 -0.91,0.39 v 15.48 a 25.3,25.3 0 0 0 1.54,8.85 c 6.79,18.38 18.13,30.91 33.72,37.22 l 0.8,0.32 0.56,0.23 0.56,-0.23 0.8,-0.32 c 15.59,-6.31 26.93,-18.84 33.72,-37.23 a 25.5,25.5 0 0 0 1.55,-8.84 v -15.48 z m -0.58,15.87 a 24.15,24.15 0 0 1 -1.45,8.32 c -6.64,18 -17.7,30.21 -32.88,36.36 l -0.8,0.32 -0.8,-0.32 c -15.18,-6.15 -26.24,-18.38 -32.87,-36.35 a 23.77,23.77 0 0 1 -1.45,-8.33 v -14.49 l 1.29,-0.55 c 4,-1.69 6.79,-6.06 8.25,-13 l 0.26,-1.22 25.32,-7.91 25.32,7.91 0.26,1.22 c 1.46,6.92 4.24,11.29 8.25,13 l 1.3,0.55 z"
       id="path95" />
    <path
       d="m 272.55,219 -22.22,-6.94 -22.22,6.94 c -1.68,7.18 -4.79,12 -9.28,14.28 v 12.13 a 20.17,20.17 0 0 0 1.23,7.07 c 6.18,16.75 16.36,28.19 30.27,34 13.91,-5.83 24.09,-17.27 30.27,-34 a 20.34,20.34 0 0 0 1.23,-7.07 v -12.13 c -4.49,-2.28 -7.6,-7.1 -9.28,-14.28 z m 8,26.41 a 19.31,19.31 0 0 1 -1.15,6.64 c -6,16.21 -15.78,27.34 -29.1,33.09 -13.32,-5.75 -23.11,-16.88 -29.1,-33.09 a 19.11,19.11 0 0 1 -1.15,-6.64 V 234 c 4.31,-2.51 7.36,-7.23 9.07,-14 l 21.18,-6.61 21.21,6.61 c 1.71,6.81 4.76,11.53 9.07,14 z m -8,-26.41 -22.22,-6.94 -22.22,6.94 c -1.68,7.18 -4.79,12 -9.28,14.28 v 12.13 a 20.17,20.17 0 0 0 1.23,7.07 c 6.18,16.75 16.36,28.19 30.27,34 13.91,-5.83 24.09,-17.27 30.27,-34 a 20.34,20.34 0 0 0 1.23,-7.07 v -12.13 c -4.49,-2.28 -7.6,-7.1 -9.28,-14.28 z m 8,26.41 a 19.31,19.31 0 0 1 -1.15,6.64 c -6,16.21 -15.78,27.34 -29.1,33.09 -13.32,-5.75 -23.11,-16.88 -29.1,-33.09 a 19.11,19.11 0 0 1 -1.15,-6.64 V 234 c 4.31,-2.51 7.36,-7.23 9.07,-14 l 21.18,-6.61 21.21,6.61 c 1.71,6.81 4.76,11.53 9.07,14 z m -8,-26.41 -22.22,-6.94 -22.22,6.94 c -1.68,7.18 -4.79,12 -9.28,14.28 v 12.13 a 20.17,20.17 0 0 0 1.23,7.07 c 6.18,16.75 16.36,28.19 30.27,34 13.91,-5.83 24.09,-17.27 30.27,-34 a 20.34,20.34 0 0 0 1.23,-7.07 v -12.13 c -4.49,-2.28 -7.6,-7.1 -9.28,-14.28 z m 8,26.41 a 19.31,19.31 0 0 1 -1.15,6.64 c -6,16.21 -15.78,27.34 -29.1,33.09 -13.32,-5.75 -23.11,-16.88 -29.1,-33.09 a 19.11,19.11 0 0 1 -1.15,-6.64 V 234 c 4.31,-2.51 7.36,-7.23 9.07,-14 l 21.18,-6.61 21.21,6.61 c 1.71,6.81 4.76,11.53 9.07,14 z"
       id="path97" />
  </g>
  <metadata
     id="metadata183">
    <rdf:RDF>
      <cc:Work
         rdf:about="">
        <dc:title>Artboard 1</dc:title>
      </cc:Work>
    </rdf:RDF>
  </metadata>
</svg>
