<?xml version="1.0" encoding="UTF-8" standalone="no"?>
<svg
   id="Layer_1"
   data-name="Layer 1"
   viewBox="0 0 100 100"
   version="1.1"
   sodipodi:docname="stat.svg"
   width="100"
   height="100"
   inkscape:version="1.1.2 (0a00cf5339, 2022-02-04)"
   xmlns:inkscape="http://www.inkscape.org/namespaces/inkscape"
   xmlns:sodipodi="http://sodipodi.sourceforge.net/DTD/sodipodi-0.dtd"
   xmlns="http://www.w3.org/2000/svg"
   xmlns:svg="http://www.w3.org/2000/svg"
   xmlns:rdf="http://www.w3.org/1999/02/22-rdf-syntax-ns#"
   xmlns:cc="http://creativecommons.org/ns#"
   xmlns:dc="http://purl.org/dc/elements/1.1/">
  <sodipodi:namedview
     id="namedview335"
     pagecolor="#505050"
     bordercolor="#eeeeee"
     borderopacity="1"
     inkscape:pageshadow="0"
     inkscape:pageopacity="0"
     inkscape:pagecheckerboard="0"
     showgrid="false"
     width="100px"
     inkscape:zoom="2.908"
     inkscape:cx="91.471802"
     inkscape:cy="107.80605"
     inkscape:window-width="1270"
     inkscape:window-height="1403"
     inkscape:window-x="2482"
     inkscape:window-y="244"
     inkscape:window-maximized="1"
     inkscape:current-layer="Layer_1" />
  <defs
     id="defs279">
    <style
       id="style277">.cls-1,.cls-3{fill:#fff;}.cls-2{fill:none;stroke-width:0.99px;}.cls-2,.cls-3{stroke:#000;stroke-miterlimit:10;}</style>
  </defs>
  <title
     id="title281">Artboard 1</title>
  <g
     id="Strength_Box"
     data-name="Strength Box"
     transform="translate(-200.41444,-198.75901)">
    <path
       class="cls-1"
       d="m 286.69,221.15 a 6.43,6.43 0 0 0 -0.83,1"
       id="path283" />
    <path
       class="cls-1"
       d="m 285.8,222.21 c -0.12,0.18 -0.23,0.36 -0.34,0.55"
       id="path285" />
    <path
       class="cls-1"
       d="m 285.44,222.79 c -0.1,0.19 -0.19,0.38 -0.28,0.58"
       id="path287" />
    <path
       class="cls-1"
       d="m 286.69,230.72 a 7.51,7.51 0 0 1 -2.06,-4.11"
       id="path289" />
    <path
       class="cls-1"
       d="m 288.13,222.67 a 7.82,7.82 0 0 0 -1.44,-4.55"
       id="path291" />
    <path
       class="cls-1"
       d="m 286.69,265.39 a 8.86,8.86 0 0 1 0,11.09 v 10.29 H 213 v -10.29 a 8.86,8.86 0 0 1 0,-11.09 v -13.18 c -0.54,-6.62 -1.61,-13 -2.58,-19.5 a 9.28,9.28 0 0 0 2.58,-2 6.21,6.21 0 0 0 2.06,-4.11 4.36,4.36 0 0 0 0,-0.51 4.44,4.44 0 0 0 0,-0.63 1,1 0 0 0 0,-0.24 4.51,4.51 0 0 0 -0.09,-0.53 4.23,4.23 0 0 0 -0.13,-0.51 c 0,-0.11 -0.06,-0.22 -0.1,-0.33 v -0.08 c -0.06,-0.16 -0.12,-0.32 -0.19,-0.47 a 4.66,4.66 0 0 0 -0.25,-0.5 3.82,3.82 0 0 0 -0.29,-0.48 2.55,2.55 0 0 0 -0.28,-0.39 v -0.06 a 3,3 0 0 1 -0.63,-1.81 v -4.68 a 3.51,3.51 0 0 1 0.17,-1 5.65,5.65 0 0 0 0,-3.29 5.62,5.62 0 0 1 -0.18,-1.53 v -1.88 a 7.58,7.58 0 0 0 6.6,-5.39 h 60.47 a 7.58,7.58 0 0 0 6.6,5.39 v 1.88 a 5.26,5.26 0 0 1 -0.19,1.53 5.76,5.76 0 0 0 0,3.29 3.51,3.51 0 0 1 0.17,1 v 4.68 a 2.92,2.92 0 0 1 -0.64,1.81 l -0.19,0.27 a 0.21,0.21 0 0 0 -0.06,0.08 4.53,4.53 0 0 0 -0.34,0.55 v 0 a 6.19,6.19 0 0 0 -0.28,0.58 6,6 0 0 0 -0.22,0.59 0.65,0.65 0 0 0 0,0.13 5.66,5.66 0 0 0 -0.15,0.59 c 0,0 0,0 0,0 a 5.07,5.07 0 0 0 -0.11,0.68 5.69,5.69 0 0 0 0,0.72 4.36,4.36 0 0 0 0,0.51 6.21,6.21 0 0 0 2.06,4.11 9.28,9.28 0 0 0 2.58,2 c -1,6.47 -2,12.88 -2.58,19.5 z"
       id="path293" />
    <path
       class="cls-1"
       d="m 213.65,221.86 a 6,6 0 0 0 -0.63,-0.71"
       id="path295" />
    <path
       class="cls-1"
       d="m 213,230.72 a 7.51,7.51 0 0 0 2.06,-4.11"
       id="path297" />
    <path
       class="cls-1"
       d="m 211.57,222.67 a 7.82,7.82 0 0 1 1.44,-4.55"
       id="path299" />
    <path
       d="m 286.45,252.19 c 0.42,-6.56 1.4,-13.07 2.28,-19.56 l 0.3,0.56 v 0 a 9.8,9.8 0 0 1 -2.83,-2.32 8.48,8.48 0 0 1 -1.76,-3.21 6.35,6.35 0 0 1 0.15,-3.64 7.2,7.2 0 0 1 1.93,-3.05 0.25,0.25 0 0 1 0.36,0 0.26,0.26 0 0 1 0,0.36 6.68,6.68 0 0 0 -1.67,2.87 5.64,5.64 0 0 0 0,3.23 7.58,7.58 0 0 0 1.69,2.81 8.8,8.8 0 0 0 2.62,2 v 0 l 0.35,0.2 -0.06,0.36 c -1.08,6.47 -2.25,12.92 -2.88,19.44 a 0.23,0.23 0 0 1 -0.26,0.21 0.23,0.23 0 0 1 -0.22,-0.26 z"
       id="path301" />
    <path
       d="m 286.1,227.9 a 5,5 0 0 0 1.5,-2.14 7.72,7.72 0 0 0 0.26,-2.59 8.54,8.54 0 0 0 -0.39,-2.54 7.54,7.54 0 0 0 -1.19,-2.22 l 0.81,-0.58 a 8.38,8.38 0 0 1 1.12,2.59 8.91,8.91 0 0 1 0.19,2.76 8,8 0 0 1 -0.55,2.68 5.1,5.1 0 0 1 -1.75,2.04 z"
       id="path303" />
    <path
       class="cls-2"
       d="m 288.64,270.94 a 8.79,8.79 0 0 1 -1.95,5.54 v 10.29 H 213 v -10.29 a 8.86,8.86 0 0 1 0,-11.09 v -34.67 a 6.16,6.16 0 0 0 2.09,-4.62 6.89,6.89 0 0 0 -1.46,-4.24 3,3 0 0 1 -0.63,-1.81 v -4.68 a 3.51,3.51 0 0 1 0.17,-1 5.65,5.65 0 0 0 0,-3.29 5.62,5.62 0 0 1 -0.18,-1.53 v -1.88 a 7.58,7.58 0 0 0 6.6,-5.39 h 60.47 a 7.58,7.58 0 0 0 6.6,5.39 v 1.88 a 5.26,5.26 0 0 1 -0.19,1.53 5.76,5.76 0 0 0 0,3.29 3.51,3.51 0 0 1 0.17,1 v 4.68 a 2.92,2.92 0 0 1 -0.64,1.81 6.88,6.88 0 0 0 -1.45,4.24 6.16,6.16 0 0 0 2.09,4.62 v 34.67 a 8.84,8.84 0 0 1 2,5.55 z"
       id="path305" />
    <path
       d="m 212.78,252.23 c -0.63,-6.52 -1.8,-13 -2.88,-19.44 l -0.06,-0.36 0.35,-0.2 v 0 a 8.8,8.8 0 0 0 2.62,-2 7.58,7.58 0 0 0 1.69,-2.81 5.55,5.55 0 0 0 0,-3.23 6.56,6.56 0 0 0 -1.66,-2.87 0.25,0.25 0 0 1 0,-0.36 0.26,0.26 0 0 1 0.36,0 7.2,7.2 0 0 1 1.93,3.05 6.35,6.35 0 0 1 0.15,3.64 8.62,8.62 0 0 1 -1.76,3.21 9.71,9.71 0 0 1 -2.84,2.32 v 0 l 0.29,-0.56 c 0.89,6.49 1.86,13 2.29,19.56 a 0.24,0.24 0 1 1 -0.47,0 z"
       id="path307" />
    <path
       d="m 213.6,227.9 a 5.1,5.1 0 0 1 -1.75,-2 8,8 0 0 1 -0.55,-2.68 8.62,8.62 0 0 1 0.19,-2.76 8.38,8.38 0 0 1 1.12,-2.59 l 0.81,0.58 a 7.32,7.32 0 0 0 -1.19,2.22 8.23,8.23 0 0 0 -0.39,2.54 7.24,7.24 0 0 0 0.26,2.59 5,5 0 0 0 1.5,2.1 z"
       id="path309" />
    <path
       d="m 287.09,276.78 a 53.47,53.47 0 0 1 -5.35,5.69 q -2.82,2.65 -5.82,5.12 a 131.14,131.14 0 0 1 -12.54,9.09 v 0 l -0.2,-0.52 c 2.49,-0.41 5,-0.87 7.44,-1.42 a 53.3,53.3 0 0 0 7.26,-2.08 v 0 0.45 a 14.17,14.17 0 0 0 -5.08,-1.89 27.2,27.2 0 0 0 -5.49,-0.35 v 0 a 26.24,26.24 0 0 1 5.53,0.12 14.58,14.58 0 0 1 5.31,1.71 l 0.45,0.27 -0.49,0.18 v 0 a 55.16,55.16 0 0 1 -7.32,2.13 c -2.47,0.56 -5,1 -7.47,1.45 l -1.3,0.22 1.1,-0.74 v 0 a 132,132 0 0 0 12.3,-9.21 c 2,-1.66 3.87,-3.38 5.71,-5.16 a 52.45,52.45 0 0 0 5.15,-5.64 z"
       id="path311" />
    <path
       d="m 270.88,273.55 a 7.3,7.3 0 0 1 1.72,2.45 9.36,9.36 0 0 1 0.71,2.88 12,12 0 0 1 -0.17,2.93 c -0.08,0.48 -0.23,0.95 -0.34,1.42 l -0.47,1.38 0.4,-1.4 c 0.09,-0.48 0.21,-1 0.27,-1.43 a 11.49,11.49 0 0 0 0,-2.87 8.74,8.74 0 0 0 -0.81,-2.72 7,7 0 0 0 -1.68,-2.21 v 0 a 0.29,0.29 0 0 1 0.37,-0.44 z"
       id="path313" />
    <path
       d="m 273.27,278.81 a 4.55,4.55 0 0 0 1.23,3.29 3.77,3.77 0 0 0 1.55,0.92 5.39,5.39 0 0 0 0.88,0.22 c 0.31,0 0.61,0.05 0.92,0.08 -0.31,0 -0.61,0 -0.92,-0.05 a 6.85,6.85 0 0 1 -0.9,-0.19 3.9,3.9 0 0 1 -1.61,-0.9 4.14,4.14 0 0 1 -1,-1.54 5.22,5.22 0 0 1 -0.34,-1.84 0.11,0.11 0 1 1 0.22,0 v 0 z"
       id="path315" />
    <path
       d="m 278.6,284.35 a 30.64,30.64 0 0 1 6.2,-2.24 11.28,11.28 0 0 1 3.27,-0.35 3.19,3.19 0 0 1 1.59,0.43 0.92,0.92 0 0 1 0.39,0.71 1.42,1.42 0 0 1 -0.22,0.78 1.43,1.43 0 0 0 0.18,-0.78 0.85,0.85 0 0 0 -0.39,-0.65 3.16,3.16 0 0 0 -1.55,-0.33 11.17,11.17 0 0 0 -3.19,0.49 30.73,30.73 0 0 0 -6,2.5 v 0 a 0.31,0.31 0 0 1 -0.43,-0.13 0.33,0.33 0 0 1 0.13,-0.43 z"
       id="path317" />
    <path
       d="m 287.19,263.42 -1,11.67 v -11.71 a 0.5,0.5 0 0 1 0.5,-0.5 0.5,0.5 0 0 1 0.5,0.5 z"
       id="path319" />
    <path
       d="m 213.41,276.19 a 53.62,53.62 0 0 0 5.16,5.64 c 1.84,1.78 3.75,3.5 5.71,5.16 a 130.67,130.67 0 0 0 12.35,9.21 v 0 l 1.1,0.74 -1.3,-0.22 c -2.5,-0.42 -5,-0.89 -7.47,-1.45 a 55.16,55.16 0 0 1 -7.32,-2.13 v 0 l -0.5,-0.18 0.46,-0.27 a 14.58,14.58 0 0 1 5.3,-1.69 26.23,26.23 0 0 1 5.53,-0.12 v 0 a 27.2,27.2 0 0 0 -5.49,0.35 14.17,14.17 0 0 0 -5.08,1.89 v -0.45 0 a 53.3,53.3 0 0 0 7.26,2.08 c 2.46,0.55 4.95,1 7.44,1.42 l -0.2,0.52 v 0 a 131.14,131.14 0 0 1 -12.54,-9.09 q -3,-2.46 -5.83,-5.12 a 54.42,54.42 0 0 1 -5.34,-5.69 z"
       id="path321" />
    <path
       d="m 229.17,274 a 7,7 0 0 0 -1.68,2.21 9,9 0 0 0 -0.82,2.72 11.49,11.49 0 0 0 0,2.87 c 0.06,0.48 0.18,0.95 0.26,1.43 l 0.41,1.4 -0.48,-1.38 c -0.1,-0.47 -0.25,-0.94 -0.33,-1.42 a 11.52,11.52 0 0 1 -0.17,-2.93 9.36,9.36 0 0 1 0.71,-2.88 7.3,7.3 0 0 1 1.72,-2.47 0.28,0.28 0 0 1 0.4,0 0.28,0.28 0 0 1 0,0.4 v 0 z"
       id="path323" />
    <path
       d="m 226.65,278.8 a 5.23,5.23 0 0 1 -0.35,1.84 3.91,3.91 0 0 1 -2.63,2.44 6.85,6.85 0 0 1 -0.9,0.19 c -0.31,0 -0.62,0 -0.92,0.05 0.3,0 0.61,0 0.91,-0.08 a 5.26,5.26 0 0 0 0.89,-0.22 3.77,3.77 0 0 0 1.55,-0.92 4.5,4.5 0 0 0 1.22,-3.29 v 0 a 0.12,0.12 0 0 1 0.12,-0.12 0.11,0.11 0 0 1 0.11,0.12 z"
       id="path325" />
    <path
       d="m 220.8,284.91 a 30.73,30.73 0 0 0 -6,-2.5 11.17,11.17 0 0 0 -3.19,-0.49 3.14,3.14 0 0 0 -1.55,0.33 0.89,0.89 0 0 0 -0.4,0.65 1.53,1.53 0 0 0 0.19,0.78 1.42,1.42 0 0 1 -0.22,-0.78 0.89,0.89 0 0 1 0.39,-0.71 3.13,3.13 0 0 1 1.59,-0.43 11.28,11.28 0 0 1 3.27,0.35 30.55,30.55 0 0 1 6.19,2.24 0.32,0.32 0 1 1 -0.27,0.57 v 0 z"
       id="path327" />
    <path
       d="m 213.51,263.38 v 11.71 l -1,-11.67 a 0.5,0.5 0 0 1 0.46,-0.54 0.5,0.5 0 0 1 0.54,0.45 z"
       id="path329" />
    <ellipse
       class="cls-3"
       cx="249.85001"
       cy="280.26999"
       rx="20.17"
       ry="14.17"
       id="ellipse331" />
  </g>
  <metadata
     id="metadata337">
    <rdf:RDF>
      <cc:Work
         rdf:about="">
        <dc:title>Artboard 1</dc:title>
      </cc:Work>
    </rdf:RDF>
  </metadata>
</svg>
